<?xml version="1.0" encoding="UTF-8"?>
<svg enable-background="new 0 0 512 512" version="1.1" viewBox="0 0 512 512" xml:space="preserve" xmlns="http://www.w3.org/2000/svg">
		<path d="m381.62 65.523h-53.943v-11.519c0-29.778-24.227-54.004-54.005-54.004h-35.346c-29.778 0-54.005 24.226-54.005 54.004v11.519h-53.943c-34.76 0-63.04 28.28-63.04 63.04v15.975h377.32v-15.976c0-34.759-28.28-63.039-63.039-63.039zm-84.36 0h-82.521v-11.519c0-13.005 10.581-23.587 23.588-23.587h35.346c13.006 0 23.588 10.581 23.588 23.587v11.519z" fill="#555"/>
		<path d="m88.452 174.96v306.11c0 17.056 13.877 30.933 30.934 30.933h273.23c17.057 0 30.934-13.877 30.934-30.933v-306.11h-335.1zm109.08 291.2h-30.417v-245.36h30.417v245.36zm73.676 0h-30.417v-245.36h30.417v245.36zm73.678 0h-30.417v-245.36h30.417v245.36z" fill="#555"/>
</svg>
