<?xml version="1.0" encoding="UTF-8" standalone="no"?>
<svg width="27px" height="27px" viewBox="0 0 27 27" version="1.1" xmlns="http://www.w3.org/2000/svg" xmlns:xlink="http://www.w3.org/1999/xlink">
    <!-- Generator: Sketch 41.1 (35376) - http://www.bohemiancoding.com/sketch -->
    <title>twitter</title>
    <desc>Created with Sketch.</desc>
    <defs></defs>
    <g id="Page-1" stroke="none" stroke-width="1" fill="none" fill-rule="evenodd">
        <g id="[Калибр]-2-каталог-отдельная-страница" transform="translate(-747.000000, -779.000000)">
            <g id="Group-2" transform="translate(581.000000, 779.000000)">
                <g id="Group-8" transform="translate(124.000000, 0.000000)">
                    <g id="twitter" transform="translate(42.000000, 0.000000)">
                        <g id="Capa_1">
                            <g id="Group">
                                <ellipse id="Oval" fill="#fff" cx="13.4041858" cy="13.4039469" rx="13.4039469" ry="13.4039469"></ellipse>
                                <path d="M21.6145752,9.63302655 C21.0401681,9.88773451 20.4222743,10.0600088 19.7742743,10.1369469 C20.4358938,9.74054867 20.9436372,9.11333628 21.183292,8.36474336 C20.5642035,8.73199115 19.8782124,8.99840708 19.1487345,9.14200885 C18.564292,8.51957522 17.7315929,8.13058407 16.809531,8.13058407 C15.0404336,8.13058407 13.6056106,9.56540708 13.6056106,11.3345044 C13.6056106,11.5856283 13.6340442,11.8300619 13.689,12.0646991 C11.0262743,11.9311327 8.66532743,10.6556814 7.08499115,8.71669912 C6.80925664,9.18979646 6.65107965,9.74054867 6.65107965,10.3276195 C6.65107965,11.4389204 7.21712389,12.42 8.07634513,12.9944071 C7.55139823,12.9779204 7.0570354,12.8338407 6.62527434,12.5932301 C6.6250354,12.6068496 6.6250354,12.620469 6.6250354,12.6338496 C6.6250354,14.1862301 7.72988496,15.4810354 9.19529204,15.7751681 C8.92672566,15.8487611 8.64310619,15.887708 8.35136283,15.887708 C8.14444248,15.887708 7.94397345,15.8678761 7.74852212,15.8306018 C8.15615044,17.1031858 9.33913274,18.0295487 10.7414602,18.0555929 C9.64473451,18.9150531 8.26343363,19.4270973 6.7619469,19.4270973 C6.50389381,19.4270973 6.24823009,19.4120442 5.99806195,19.382177 C7.41520354,20.2915752 9.09971681,20.8217788 10.9089558,20.8217788 C16.8021239,20.8217788 20.0249204,15.9397965 20.0249204,11.7055752 C20.0249204,11.5667522 20.0218142,11.4284071 20.0156018,11.2912566 C20.6420973,10.8396637 21.1852035,10.275531 21.6145752,9.63302655 L21.6145752,9.63302655 Z" id="Shape" fill="#F1F2F2"></path>
                            </g>
                        </g>
                    </g>
                </g>
            </g>
        </g>
    </g>
</svg>
