<?xml version="1.0" encoding="UTF-8"?>
<svg viewBox="0 0 1237.44 1237.44" xmlns="http://www.w3.org/2000/svg">
<defs>
<style>.a{fill:#1f1a18;}.b{fill:none;stroke:#fff;stroke-miterlimit:10;stroke-width:10px;}.c{fill:#fff;}</style>
</defs>
<title>logo</title>
<circle class="a" cx="618.72" cy="618.72" r="618.72"/>
<circle class="b" cx="617.81" cy="618.18" r="598.59"/>
<circle class="b" cx="617.81" cy="618.18" r="531.97"/>
<polygon class="c" points="27.55 689.92 85.83 682.75 88.39 700.25 29.89 709.09"/>
<polygon class="c" points="108.29 311.69 158.45 342.2 149.6 357.51 98.23 328.17"/>
<polygon class="c" points="371.52 76.86 395.27 130.56 379.26 138.08 353.85 84.65"/>
<polygon class="c" points="755.29 39.26 741.22 96.27 723.96 92.42 736.55 34.61"/>
<polygon class="c" points="1057.5 217.98 1013.4 256.72 1001.4 243.69 1044.8 203.45"/>
<polygon class="c" points="235.04 993.3 192 1033.2 179.68 1020.6 221.92 979.14"/>
<polygon class="c" points="513.03 1144.6 498.97 1201.6 481.71 1197.7 494.29 1139.9"/>
<polygon class="c" points="857.14 1098.4 880.54 1152.3 864.48 1159.7 839.42 1106.1"/>
<polygon class="c" points="1209 550.58 1150.6 556.71 1148.4 539.16 1207 531.37"/>
<polygon class="c" points="1125.4 927.76 1075.8 896.4 1084.9 881.24 1135.8 911.45"/>
<path class="c" transform="translate(-30.66 -27.79)" d="M612.59,1060.47a21.81,21.81,0,0,1-5.89,15.64q-6.72,7.13-23.59,7.12c-.85,0-2.08,0-3.69,0h-3.64q-18.91,0-22.51-.77c-1-.2-1.48-.73-1.48-1.59q0-5.47.64-16.61t.64-16.66q0-6-.62-22.35-.15-4.22-.56-12.62l0-.71c0-.65.5-1,1.61-1.18s5.07-.21,11.87-.21q16.35,0,19.13.1,12.6.46,18.61,4.11,7.94,4.86,7.94,16.45a13.41,13.41,0,0,1-1.84,6.41,26.54,26.54,0,0,1-3.49,4.82,12.21,12.21,0,0,1-1.9,2c0,.24.45.61,1.34,1.13a13.81,13.81,0,0,1,5.64,6.51A20,20,0,0,1,612.59,1060.47Zm-22-28.87q0-4.39-4.41-5.84a30.17,30.17,0,0,0-8.1-.77q-5.53,0-5.54.82c0,.65-.06,1.63-.18,3s-.18,2.3-.18,3q0,5.13.87,5.74.57.46,6.51.46Q590.55,1037.91,590.55,1031.6Zm1.53,28.66c0-3.07-1.28-5.16-3.84-6.25-1.64-.68-4.31-1-8-1-4.41,0-6.8.17-7.18.49s-.56,2.42-.56,6.28q0,6,.67,6.69t7.38.64q5.54,0,7.79-.87C590.84,1065.22,592.08,1063.24,592.08,1060.26Z"/>
<path class="c" transform="translate(-30.66 -27.79)" d="M686.73,1081.34c0,.61-.43,1-1.28,1.28q-1.55.41-9.54.41a65.2,65.2,0,0,1-9.43-.41,2.77,2.77,0,0,1-2.21-2.31q-1.74-7.38-2.72-7.9-.81-.35-13.74-.35-8.71,0-9.28.46-.87.81-1.94,5.48-1,4.26-2.36,4.62-1.74.41-11.69.41-7.85,0-7.85-1.49,0-1.33,11.59-32.76,12.56-34,13.64-37.38c.41-1.29.89-1.94,1.43-1.94.93,0,2.35.08,4.29.25s3.37.26,4.33.26,2.28-.06,4.07-.18,3.14-.18,4-.18c.65,0,1.24.56,1.79,1.69q2.52,5.38,14.67,36.92Q686.72,1079.94,686.73,1081.34Zm-36.35-46.71q-1.08,2.25-3.64,9.79-2.78,8-2.77,9.38c0,.62,1,1,3.08,1,1.05.07,2.8.1,5.22.1,2.26,0,3.51-.27,3.75-.82a2,2,0,0,0,.1-.72q0-1.68-2.36-9.33A72.87,72.87,0,0,0,650.38,1034.63Z"/>
<path class="c" transform="translate(-30.66 -27.79)" d="M753.07,1082.1c0,.24-.34.41-1,.52a90,90,0,0,1-9.8.31,88.1,88.1,0,0,1-9.12-.31,5.32,5.32,0,0,1-1.28-.26,2.18,2.18,0,0,1-.72-1q-.78-2-2.26-5.95-2-5.13-6.25-15.13-.93-2-4.26-2.2,1.54.11-5.28.1c-.51,0-.77.87-.77,2.62q0,3.48.64,10.4t.64,10.41c0,.58-.15.92-.46,1l-1.43.1q-3,.21-9.44.21a68.73,68.73,0,0,1-8.82-.31c-1-.21-1.48-.74-1.48-1.59q0-5.64.54-17t.53-17.08q0-21.67-1-33.83l0-.72c0-.58.5-1,1.61-1.18s6.34-.41,15.67-.62q9.48-.2,15.12-.2,11.69,0,19.07,5.28,8.35,6,8.36,17.17,0,7.5-2.15,12t-8,8.67c-.79.54-1.18,1.06-1.18,1.53t6.26,12.87Q753.08,1080.78,753.07,1082.1Zm-21.53-46q0-6.25-4.1-8.67-3.18-1.85-10-1.84c-3.25,0-5,.49-5.18,1.48a90.12,90.12,0,0,0-.31,10.05c0,.79,0,1.95,0,3.49s.06,2.68.06,3.43c0,.17.54.34,1.64.52a46,46,0,0,0,6.56.46Q731.55,1045,731.54,1036.12Z"/>
<path class="c" transform="translate(-30.66 -27.79)" d="M593.92,304.39a19.07,19.07,0,0,1-5.17,13.7q-5.88,6.24-20.66,6.24c-.75,0-1.83,0-3.23,0h-3.19q-16.57,0-19.72-.68c-.87-.18-1.31-.64-1.31-1.39q0-4.8.56-14.55t.57-14.6q0-5.22-.54-19.59c-.09-2.45-.26-6.14-.5-11.05l0-.63c0-.57.44-.91,1.41-1s4.44-.18,10.4-.18q14.32,0,16.76.09,11.06.4,16.3,3.59,7,4.28,7,14.42a11.78,11.78,0,0,1-1.62,5.62,23.76,23.76,0,0,1-3,4.22,10.58,10.58,0,0,1-1.67,1.71q0,.31,1.17,1a12.05,12.05,0,0,1,4.94,5.7A17.57,17.57,0,0,1,593.92,304.39ZM574.6,279.1a5,5,0,0,0-3.86-5.12,26.26,26.26,0,0,0-7.1-.68c-3.23,0-4.85.24-4.85.72s0,1.43-.16,2.58-.15,2-.15,2.59c0,3,.25,4.67.76,5q.5.4,5.71.4Q574.6,284.62,574.6,279.1ZM576,304.21c0-2.7-1.12-4.52-3.37-5.48a19.7,19.7,0,0,0-7-.9c-3.86,0-6,.14-6.28.43s-.5,2.11-.5,5.5.2,5.49.59,5.86,2.54.56,6.46.56a21.14,21.14,0,0,0,6.83-.76Q576,308.12,576,304.21Z"/>
<path class="c" transform="translate(-30.66 -27.79)" d="M645.63,309.82a58.56,58.56,0,0,1-.77,7.1c-.54,3.74-1,6-1.44,6.69a1.67,1.67,0,0,1-1.48.86,11.25,11.25,0,0,1-1.35-.14q-3.27-.45-19.13-.45-3.47,0-10.29,0c-4.55,0-8,0-10.24,0-1,0-1.48-.43-1.48-1.3q0-5,.56-15.12t.56-15.11q0-5.13-.54-19.09c-.09-2.4-.26-6-.49-10.74l0-.63c-.06-.69.31-1,1.12-1q3.33,0,10,.18t10,.18c2.19,0,5.48-.06,9.89-.18s7.69-.18,9.88-.18c1.56,0,2.45.58,2.69,1.75.15.69.39,2.78.7,6.27s.47,5.61.47,6.35-.3.95-.9.95l-.94,0q-12-1-21.47-1c-1.59,0-2.56.38-2.92,1.13a13.94,13.94,0,0,0-.23,3.46c0,2,.3,3.38.9,4a3.86,3.86,0,0,0,2.92.85c.3,0,.88,0,1.75-.07s1.59-.06,2.16-.06q5.65,0,11.46-.32l2.47-.22a21.64,21.64,0,0,1,2.42-.18c.72,0,1.08.34,1.08,1q0-.94-.81,6.87-.36,3.6-.36,7.19c0,.6-.43.9-1.3.9l-4-.45q-2.56-.27-11.68-.27H620c-1.22,0-1.94.3-2.15.9,0,.15-.05,1.08-.05,2.79a13.21,13.21,0,0,0,.45,4.4q.76,1.71,5.75,2h6.56q2.38,0,7.08-.43t7-.42C645.3,308.21,645.63,308.74,645.63,309.82Z"/>
<path class="c" transform="translate(-30.66 -27.79)" d="M697.6,309.82a57.9,57.9,0,0,1-.76,7.1c-.54,3.74-1,6-1.44,6.69a1.67,1.67,0,0,1-1.48.86,11.25,11.25,0,0,1-1.35-.14q-3.29-.45-19.14-.45-3.45,0-10.29,0t-10.24,0c-1,0-1.48-.43-1.48-1.3q0-5,.56-15.12t.56-15.11q0-5.13-.54-19.09-.13-3.6-.49-10.74l0-.63c-.07-.69.31-1,1.12-1,2.21,0,5.55.06,10,.18s7.78.18,10,.18,5.48-.06,9.88-.18,7.7-.18,9.88-.18c1.56,0,2.46.58,2.7,1.75q.23,1,.7,6.27t.47,6.35c0,.63-.3.95-.9.95l-.94,0q-12-1-21.48-1c-1.59,0-2.56.38-2.92,1.13a14.19,14.19,0,0,0-.22,3.46c0,2,.3,3.38.9,4a3.86,3.86,0,0,0,2.92.85c.3,0,.88,0,1.75-.07s1.59-.06,2.15-.06q5.67,0,11.46-.32l2.47-.22a22,22,0,0,1,2.43-.18c.72,0,1.07.34,1.07,1,0-.63-.26,1.66-.8,6.87q-.36,3.6-.36,7.19c0,.6-.44.9-1.31.9l-4-.45q-2.57-.27-11.68-.27H672q-1.85,0-2.16.9c0,.15,0,1.08,0,2.79a13.21,13.21,0,0,0,.45,4.4c.51,1.14,2.42,1.81,5.75,2h6.56q2.37,0,7.07-.43t7-.42C697.27,308.21,697.6,308.74,697.6,309.82Z"/>
<path class="c" transform="translate(-30.66 -27.79)" d="M757.12,323.34q0,.32-.9.45a77.65,77.65,0,0,1-8.58.27,76,76,0,0,1-8-.27,4.82,4.82,0,0,1-1.13-.22,2,2,0,0,1-.63-.9l-2-5.21q-1.75-4.48-5.48-13.25c-.54-1.17-1.78-1.81-3.73-1.93.9.06-.65.09-4.63.09-.45,0-.67.76-.67,2.29q0,3,.56,9.12t.56,9.12c0,.51-.13.8-.4.89l-1.26.09c-1.77.12-4.52.18-8.27.18a59.32,59.32,0,0,1-7.72-.27c-.87-.18-1.31-.64-1.31-1.39q0-4.93.48-14.91t.47-15q0-19-.86-29.65l0-.63c0-.51.44-.85,1.41-1s5.55-.36,13.73-.54q8.31-.18,13.25-.18,10.25,0,16.71,4.63,7.32,5.21,7.32,15,0,6.57-1.88,10.47a21.23,21.23,0,0,1-7,7.59c-.69.48-1,.93-1,1.35t5.48,11.28C755.29,318.4,757.12,322.57,757.12,323.34Zm-18.87-40.29c0-3.65-1.19-6.18-3.59-7.59q-2.79-1.62-8.71-1.62c-2.85,0-4.36.44-4.54,1.3a78,78,0,0,0-.27,8.81c0,.69,0,1.71,0,3.05s.05,2.35.05,3q0,.23,1.44.45a39.2,39.2,0,0,0,5.75.41Q738.25,290.87,738.25,283.05Z"/>
<path class="c" transform="translate(-30.66 -27.79)" d="M604.76,359.38c0,.69-.38,1-1.13,1q-1.95,0-15.43-.77-.32,13-.31,18.1,0,6,.49,18.2t.49,18.2c0,.65-.16,1.06-.47,1.23a6.35,6.35,0,0,1-1.43.26,74.42,74.42,0,0,1-9,.41,71.2,71.2,0,0,1-9.28-.41,1.51,1.51,0,0,1-1.44-1.59q0-6,.51-18.15t.52-18.15q0-4-.41-17.84-10.26,1-16.36,1c-.55,0-.82-.17-.82-.51a30.09,30.09,0,0,1,.72-4c.54-2.39.85-3.84.92-4.36.1-1.6.22-3.21.36-4.82q.36-3.84,1.23-3.84l.72.05a206.31,206.31,0,0,0,24.56,1.08q4.61,0,17-1l6.71-.51a2.68,2.68,0,0,1,1.18.13c.11.08.17.42.21,1,0,.92,0,2.2-.1,3.84-.07,1.82-.11,3.1-.11,3.85a29.76,29.76,0,0,0,.34,3.77A31,31,0,0,1,604.76,359.38Z"/>
<path class="c" transform="translate(-30.66 -27.79)" d="M677.87,414.35c0,.61-.43,1-1.28,1.28q-1.55.4-9.54.41a65.2,65.2,0,0,1-9.43-.41,2.78,2.78,0,0,1-2.21-2.31q-1.74-7.38-2.71-7.9-.83-.35-13.74-.35c-5.81,0-8.91.15-9.28.46q-.87.81-1.95,5.48-1,4.26-2.36,4.62-1.74.4-11.69.41-7.84,0-7.84-1.49,0-1.33,11.58-32.76,12.57-34,13.64-37.38c.41-1.29.89-1.94,1.44-1.94.92,0,2.35.08,4.28.25s3.37.26,4.33.26,2.28-.06,4.08-.18,3.13-.18,4-.18c.65,0,1.25.56,1.8,1.69q2.5,5.38,14.66,36.92Q677.87,413,677.87,414.35Zm-36.35-46.71q-1.08,2.25-3.64,9.79-2.77,8-2.77,9.38c0,.62,1,1,3.08,1,1.06.07,2.8.1,5.23.1,2.25,0,3.5-.27,3.74-.82a2,2,0,0,0,.1-.72c0-1.12-.78-4.23-2.36-9.33A71.31,71.31,0,0,0,641.52,367.64Z"/>
<path class="c" transform="translate(-30.66 -27.79)" d="M744.52,371.13q0,12.4-6.51,20.09-7,8.16-19.23,8.15c-1.36,0-3.42-.07-6.17-.23s-4.82-.23-6.18-.23-2.21.64-2.21,1.9c0,1.57.16,3.91.46,7s.47,5.44.47,7c0,.78-.36,1.18-1.08,1.18-2.09,0-5.21-.06-9.38-.18s-7.3-.18-9.39-.18a1.31,1.31,0,0,1-1.48-1.49q0-5.68.18-17.1t.18-17.1q0-16.1-1.39-33.83l0-.72c-.07-.65.44-1,1.54-1.18q4-.51,17.64-.51,8,0,15.43.2,12.15.36,19.58,7.64Q744.52,359,744.52,371.13Zm-20.46.82q0-12-11.63-11.95-8.2,0-8.62.92-.36.68-.36,11.85c0,1.06,0,2.62.13,4.69s.13,3.63.13,4.69q0,1,9.23,1Q724.06,383.17,724.06,372Z"/>
<path class="c" transform="translate(-30.66 -27.79)" d="M442.19,564.71l3.14-7.42c.06-.12.12-.24.17-.37l16.07-41.68s10.72,1.87,14.33,2.14,10.65.77,14.08,0c3.59-.81,13.42-6,13.42-6s8.92-6.09,11.4-8.67c1.76-1.84,5.82-8.35,5.82-8.35,14.2,0,25.16,5.78,35.79,13.7,3.26,3.54,7.51,6.93,10.15,10.95,7,10.68,9.56,22.85,12.63,35L597.3,688.71,605.35,760l4,50.67v32l-3.36,32-7.37,28.67-12.08,20S578.09,932.2,574.5,934c-2.73,1.4-12,2.75-12,2.75-1.65.38-5.29.88-5.29.88s-.83,4.21-1.12,5.87l-3.75,21.84h97v-518H520.84s-5.52-8.95-8.05-11.34c-2.3-2.16-7.92-5.21-10.73-6.66-2-1-8.05-4-8.05-4l14.75-126.63c.21-4.44.67-9-.25-13.41s-3.15-10.27-6.3-13.86c-5.1-5.81-11.88-8.53-19.45-9.73-5.42-.86-12.71-.53-17.53,2.4-3.34,2-7.23,3.61-9.87,6.51a27.09,27.09,0,0,0-6.2,13.32c-2.06,11.15.31,23,1.56,34.22l3.58,32,3.9,34.88,3,27.22a121.12,121.12,0,0,1,1,15.23L450.48,434c-3.72,2-6.91,6.74-9.19,10.18a48.89,48.89,0,0,0-8.05,30.41c.39,5.67,2.23,10.68,3.74,16.15L447.73,506l-21,52.67"/>
<path class="c" transform="translate(-30.66 -27.79)" d="M856.56,564.71l-3.13-7.42a1.76,1.76,0,0,1-.17-.37l-16.08-41.68s-10.71,1.87-14.32,2.14-10.65.77-14.09,0-13.41-6-13.41-6-8.93-6.09-11.41-8.67c-1.76-1.84-5.81-8.35-5.81-8.35-14.2,0-25.17,5.78-35.8,13.7-3.26,3.54-7.5,6.93-10.15,10.95-7,10.68-9.55,22.85-12.63,35L701.45,688.71,693.4,760l-4,50.67v32l3.35,32,7.38,28.67,12.07,20s8.49,8.82,12.08,10.66c2.73,1.4,12,2.75,12,2.75,1.65.38,5.3.88,5.3.88s.82,4.21,1.11,5.87l3.75,21.84h-97v-518H777.92s5.51-8.95,8.05-11.34c2.3-2.16,7.92-5.21,10.73-6.66,2-1,8-4,8-4L790,298.75c-.2-4.44-.67-9,.25-13.41s3.16-10.27,6.31-13.86c5.09-5.81,11.88-8.53,19.44-9.73,5.42-.86,12.71-.53,17.53,2.4,3.35,2,7.24,3.61,9.87,6.51A27.2,27.2,0,0,1,849.6,284c2,11.15-.32,23-1.57,34.22l-3.58,32-3.89,34.88-3,27.22a119.26,119.26,0,0,0-1,15.23L848.28,434c3.71,2,6.9,6.74,9.18,10.18a48.72,48.72,0,0,1,8,30.41c-.38,5.67-2.22,10.68-3.74,16.15L851,506l21,52.67"/>
<line class="a" x1="359.64" x2="359.64" y1="686.25" y2="910.92"/>
<path class="c" transform="translate(-30.66 -27.79)" d="M383.38,587.9h125V762.41l-.46,105.26.46,97.71H389.88s-7.41-.11-10.25-.34-24.81-5.1-24.81-5.1l28.56-372"/>
<path class="c" transform="translate(-30.66 -27.79)" d="m507.93 867.67c-19.19 56-67.72 95.71-124.55 95.71-73.64 0-133.34-66.71-133.34-149s59.7-149 133.34-149c57.28 0 106.13 40.37 125 97"/>
<ellipse class="c" transform="translate(-378.5 796.29) rotate(-73.13)" cx="381.56" cy="646.51" rx="59.11" ry="53"/>
<path class="a" transform="translate(-30.66 -27.79)" d="M390.29,938.71c-51,0-92.41-50.29-92.41-112.33S339.25,714,390.29,714"/>
<path class="a" transform="translate(-30.66 -27.79)" d="M390.29,658.38a17.57,17.57,0,0,1,0-35.13"/>
<path class="c" transform="translate(-30.66 -27.79)" d="M913.61,587.93h-125V762.44l.46,105.25-.46,97.71h118.5s7.41-.1,10.25-.33,24.81-5.1,24.81-5.1l-28.56-372"/>
<path class="c" transform="translate(-30.66 -27.79)" d="m789.06 867.7c19.19 56 67.72 95.7 124.55 95.7 73.64 0 133.33-66.71 133.33-149s-59.69-149-133.33-149c-57.28 0-106.13 40.37-125 97"/>
<ellipse class="c" transform="translate(-178.86 265.62) rotate(-16.87)" cx="915.43" cy="646.54" rx="53" ry="59.11"/>
<path class="a" transform="translate(-30.66 -27.79)" d="m906.69 938.74c51 0 92.42-50.3 92.42-112.34s-41.37-112.33-92.42-112.33"/>
<path class="a" transform="translate(-30.66 -27.79)" d="M906.69,658.4a17.56,17.56,0,0,0,0-35.12"/>
</svg>
