<?xml version="1.0" encoding="UTF-8"?>
<svg enable-background="new 0 0 477.875 477.875" version="1.1" viewBox="0 0 477.875 477.875" xml:space="preserve" xmlns="http://www.w3.org/2000/svg">
		<path d="m329.62 142.69c6.517-6.517 6.517-17.283 0-24.083-6.517-6.517-17.283-6.517-24.083 0l-178.22 178.22c-21.25 21.25-21.25 56.1 0 77.35s56.1 21.25 77.35 0l186.72-186.72c1.7-0.85 3.4-1.983 5.1-3.4 24.933-24.933 91.233-91.233 27.483-154.98-24.367-24.367-53.55-33.717-84.433-26.917-25.217 5.383-51.283 21.533-77.35 47.6l-202.3 202.3c-24.083 24.083-36.833 57.517-35.417 94.067 1.417 34.85 15.867 68.85 39.95 92.933s57.517 37.967 92.083 38.817h2.833c34.567 0 66.3-13.033 89.817-36.55l199.47-199.47c6.517-6.517 6.517-17.283 0-24.083-6.517-6.517-17.283-6.517-24.083 0l-199.47 199.47c-17.567 17.567-41.65 26.917-68 26.633-25.783-0.567-50.717-11.05-68.567-28.9-38.25-38.25-40.233-103.13-4.533-138.83l202.3-202.3c20.967-20.967 41.933-34.283 60.35-38.25 19.55-4.25 37.117 1.417 53.267 17.85 15.867 15.867 20.4 30.6 14.733 48.45-3.967 12.75-13.033 26.917-28.333 43.917-1.133 0.85-2.55 1.7-3.4 2.55l-202.02 202.02c-7.933 7.933-21.25 7.933-29.183 0s-7.933-21.25 0-29.183l177.93-178.5z" fill="#555"/>
</svg>
